HIERARCHY
ROOT Pelvis
{
	OFFSET 0.000000 0.000000 0.000000
	CHANNELS 6 Xposition Yposition Zposition Xrotation Yrotation Zrotation
	JOINT LeftUpLeg_virtual
	{
		OFFSET 0.000000 0.000000 0.000000
		CHANNELS 3 Xrotation Yrotation Zrotation
		JOINT LeftUpLeg
		{
			OFFSET 18.735201 -5.666702 -4.541200
			CHANNELS 3 Xrotation Yrotation Zrotation
			JOINT LeftLeg
			{
				OFFSET -0.021200 -31.938179 0.493100
				CHANNELS 3 Xrotation Yrotation Zrotation
				JOINT LeftFoot
				{
					OFFSET 0.021200 -31.938179 -4.336299
					CHANNELS 3 Xrotation Yrotation Zrotation
					JOINT LeftToeBase
					{
						OFFSET 0.943001 -26.722000 15.023500
						CHANNELS 3 Xrotation Yrotation Zrotation
						End Site
						{
							OFFSET 0 0 0
						}
					}
				}
			}
		}
	}
	JOINT RightUpLeg_virtual
	{
		OFFSET 0.000000 0.000000 0.000000
		CHANNELS 3 Xrotation Yrotation Zrotation
		JOINT RightUpLeg
		{
			OFFSET -18.735201 -5.666702 -4.541200
			CHANNELS 3 Xrotation Yrotation Zrotation
			JOINT RightLeg
			{
				OFFSET 0.018946 -31.938133 0.493100
				CHANNELS 3 Xrotation Yrotation Zrotation
				JOINT RightFoot
				{
					OFFSET -0.018946 -31.938126 -4.336299
					CHANNELS 3 Xrotation Yrotation Zrotation
					JOINT RightToeBase
					{
						OFFSET -0.943001 -26.722004 15.023500
						CHANNELS 3 Xrotation Yrotation Zrotation
						End Site
						{
							OFFSET 0 0 0
						}
					}
				}
			}
		}
	}
	JOINT Hips_virtual
	{
		OFFSET 0.000000 0.000000 0.000000
		CHANNELS 3 Xrotation Yrotation Zrotation
		JOINT Hips
		{
			OFFSET -0.000000 -0.000000 -0.000000
			CHANNELS 3 Xrotation Yrotation Zrotation
			JOINT Spine
			{
				OFFSET 0.000000 10.199997 -0.299500
				CHANNELS 3 Xrotation Yrotation Zrotation
				JOINT Spine1
				{
					OFFSET 0.000000 11.900002 -1.516600
					CHANNELS 3 Xrotation Yrotation Zrotation
					JOINT Spine2
					{
						OFFSET 0.000000 13.600006 -2.842500
						CHANNELS 3 Xrotation Yrotation Zrotation
						JOINT Neck_virtual
						{
							OFFSET 0.000000 0.000000 0.000000
							CHANNELS 3 Xrotation Yrotation Zrotation
							JOINT Neck
							{
								OFFSET 0.000000 9.624100 -2.890100
								CHANNELS 3 Xrotation Yrotation Zrotation
								JOINT Head
								{
									OFFSET 0.000000 14.068802 -1.351900
									CHANNELS 3 Xrotation Yrotation Zrotation
									End Site
									{
										OFFSET 0 0 0
									}
								}
							}
						}
						JOINT LeftShoulder_virtual
						{
							OFFSET 0.000000 0.000000 0.000000
							CHANNELS 3 Xrotation Yrotation Zrotation
							JOINT LeftShoulder
							{
								OFFSET 15.263000 10.923401 -0.547700
								CHANNELS 3 Xrotation Yrotation Zrotation
								JOINT LeftArm
								{
									OFFSET 25.438599 -2.830597 -13.032500
									CHANNELS 3 Xrotation Yrotation Zrotation
									JOINT LeftForeArm
									{
										OFFSET 29.960503 0.000000 0.000000
										CHANNELS 3 Xrotation Yrotation Zrotation
										JOINT LeftHand
										{
											OFFSET 27.849251 0.000000 0.000000
											CHANNELS 3 Xrotation Yrotation Zrotation
											End Site
											{
												OFFSET 0 0 0
											}
										}
									}
								}
							}
						}
						JOINT RightShoulder_virtual
						{
							OFFSET 0.000000 0.000000 0.000000
							CHANNELS 3 Xrotation Yrotation Zrotation
							JOINT RightShoulder
							{
								OFFSET -15.263000 10.923401 -0.547700
								CHANNELS 3 Xrotation Yrotation Zrotation
								JOINT RightArm
								{
									OFFSET -25.438599 -2.830597 -13.032500
									CHANNELS 3 Xrotation Yrotation Zrotation
									JOINT RightForeArm
									{
										OFFSET -29.960503 0.000000 0.000000
										CHANNELS 3 Xrotation Yrotation Zrotation
										JOINT RightHand
										{
											OFFSET -27.849251 0.000000 0.000000
											CHANNELS 3 Xrotation Yrotation Zrotation
											End Site
											{
												OFFSET 0 0 0
											}
										}
									}
								}
							}
						}
					}
				}
			}
		}
	}
}
MOTION
Frames: 6
Frame Time: 0.03333333
3.799194 80.258499 2.138474 0.000000 0.000000 0.000000 10.506112 67.130309 -12.185367 -18.019642 -2.236017 25.266495 57.065472 -7.493083 10.470925 -38.490548 7.338100 -17.765576 0.000000 0.000000 0.000000 10.506112 67.130309 -12.185367 -39.052693 10.976000 -19.595968 50.213167 10.193975 -6.621961 -17.125535 0.088518 25.683431 0.000000 0.000000 0.000000 10.506112 67.130309 -12.185367 0.000000 0.000002 0.000000 1.867863 -1.811654 0.508899 2.147804 -0.574861 -0.033124 0.000000 0.000000 0.000000 2.136799 -0.620496 -0.146678 -1.777541 -4.150046 0.170112 0.000000 0.000000 0.000000 2.136799 -0.620496 -0.146678 1.127383 -10.640392 -5.486605 -1.802084 -47.065444 -47.163167 179.999991 -73.678084 179.999991 0.000000 0.000000 0.000000 2.136799 -0.620496 -0.146678 0.469307 -2.168346 7.105750 -29.988369 -15.739997 41.708393 -179.999855 70.652822 179.999855 0.000000 0.000000 0.000000 
4.352537 83.321808 2.170116 0.000000 0.000000 0.000000 7.828029 63.414803 -9.018697 -15.570099 2.125118 23.593316 51.274111 -6.951974 10.948316 -30.352746 6.435129 -18.372758 0.000000 0.000000 0.000000 7.828029 63.414803 -9.018697 -36.523555 8.800107 -19.941586 38.074773 9.917371 -6.814500 -7.718529 7.126581 28.012124 0.000000 0.000000 0.000000 7.828029 63.414803 -9.018697 0.000000 0.000000 0.000000 1.865658 -2.381640 0.046648 2.147878 -0.743391 -0.181096 0.000000 0.000000 0.000000 2.123234 -0.800164 -0.306782 -1.526906 -3.897256 0.334237 0.000000 0.000000 0.000000 2.123234 -0.800164 -0.306782 1.197100 -10.412337 -4.302577 -5.193339 -45.854256 -50.234132 179.999868 -72.243983 179.999855 0.000000 0.000000 0.000000 2.123234 -0.800164 -0.306782 0.488558 -1.683400 7.375537 -29.457206 -13.864248 41.538192 -179.999950 68.998352 179.999950 0.000000 0.000000 0.000000 
5.235126 87.456635 2.236454 0.000000 0.000000 0.000000 6.476744 57.511033 -6.712651 -15.392197 5.725971 21.429860 45.705877 -5.059187 9.727602 -14.110455 3.791657 -18.497500 0.000000 0.000000 0.000000 6.476744 57.511033 -6.712651 -34.197463 5.920072 -18.366095 21.086276 9.743080 -6.750023 9.686971 15.929791 25.864992 0.000000 0.000000 0.000000 6.476744 57.511033 -6.712651 0.000000 0.000001 0.000000 0.916058 -2.859674 -1.043279 1.369297 -0.750833 -0.544706 0.000000 0.000000 0.000000 1.328519 -0.799762 -0.660570 -0.931444 -3.524904 0.691685 0.000000 0.000000 0.000000 1.328519 -0.799762 -0.660570 1.264991 -9.251290 -1.937964 -9.747284 -45.080977 -53.432884 -179.999950 -70.543170 -179.999964 0.000000 0.000000 0.000000 1.328519 -0.799762 -0.660570 0.565214 -0.209086 8.822584 -28.956826 -9.525904 37.940543 179.999882 68.387160 -179.999896 0.000000 0.000000 0.000000 
5.623796 91.190018 1.904655 0.000000 0.000000 0.000000 5.833488 50.325479 -4.479129 -16.513579 6.776004 17.809136 38.937891 -0.578648 7.459594 9.760449 -0.119259 -15.691151 0.000000 0.000000 0.000000 5.833488 50.325479 -4.479129 -34.727024 4.061142 -17.579911 13.101515 10.467923 -4.050263 23.831415 13.784409 19.305769 0.000000 0.000000 0.000000 5.833488 50.325479 -4.479129 0.000000 0.000001 0.000000 0.034541 -3.050310 -2.344581 0.605335 -0.473781 -0.931584 0.000000 0.000000 0.000000 0.553922 -0.512512 -1.019412 -0.513794 -3.112221 0.979779 0.000000 0.000000 0.000000 0.553922 -0.512512 -1.019412 1.307745 -8.658849 0.291259 -14.937094 -42.074624 -55.476890 -179.999896 -67.700152 -179.999882 0.000000 0.000000 0.000000 0.553922 -0.512512 -1.019412 0.601172 2.797504 9.668298 -29.462359 -5.853201 33.684420 179.999991 67.689873 -179.999991 0.000000 0.000000 0.000000 
5.681962 95.938400 0.561295 0.000000 0.000000 0.000000 4.802694 43.312357 -4.559587 -17.448224 5.860223 15.062696 33.137377 2.165003 5.507487 28.863543 -1.744328 -9.244520 0.000000 0.000000 0.000000 4.802694 43.312357 -4.559587 -35.183991 0.313885 -16.358122 19.866461 10.527469 -1.693733 16.598234 1.832960 14.659997 0.000000 0.000000 0.000000 4.802694 43.312357 -4.559587 0.000000 0.000001 0.000000 0.606662 -2.342363 -0.004389 0.985247 -0.223879 -0.482493 0.000000 0.000000 0.000000 0.956667 -0.257982 -0.571311 -0.805568 -2.717502 0.858445 0.000000 0.000000 0.000000 0.956667 -0.257982 -0.571311 1.144504 -7.246874 -0.418777 -17.263576 -39.941249 -52.918725 -179.999923 -66.541328 -179.999909 0.000000 0.000000 0.000000 0.956667 -0.257982 -0.571311 0.608124 4.290605 9.147269 -30.800704 -1.171631 31.921661 -179.999923 67.287663 179.999923 0.000000 0.000000 0.000000 
5.431362 99.827599 -0.221447 0.000000 0.000000 0.000000 2.656985 37.652524 -3.761669 -23.663609 3.884785 13.929355 43.933057 0.949267 4.544212 28.729514 -1.368885 -7.321849 0.000000 0.000000 0.000000 2.656985 37.652524 -3.761669 -33.945036 -2.581426 -15.790767 29.791530 7.434856 -0.385449 8.296580 0.085435 10.689009 0.000000 0.000000 0.000000 2.656985 37.652524 -3.761669 0.000000 -0.000001 0.000000 1.928075 -1.386609 1.425455 2.112716 0.216713 -0.015671 0.000000 0.000000 0.000000 2.107108 0.172502 -0.130755 -1.144468 -2.415259 0.610305 0.000000 0.000000 0.000000 2.107108 0.172502 -0.130755 0.961110 -5.437051 -1.714551 -19.505629 -39.400035 -50.928121 -179.999978 -67.372740 -179.999950 0.000000 0.000000 0.000000 2.107108 0.172502 -0.130755 0.604683 3.830620 9.160632 -31.577710 4.135913 31.608548 -179.999841 68.440572 179.999827 0.000000 0.000000 0.000000 
